<svg width="16" height="16" viewBox="0 0 16 16" fill="none" xmlns="http://www.w3.org/2000/svg">
<path d="M6.30251 7.8125L1.17451 2.80469L0.117012 1.77197C-0.0389881 1.61963 -0.0389881 1.37207 0.117012 1.21973L1.24851 0.114746C1.40451 -0.0375976 1.65801 -0.0375976 1.81401 0.114746L7.99951 6.15527L14.185 0.114258C14.341 -0.0380859 14.5945 -0.0380859 14.7505 0.114258L15.8825 1.21924C16.0385 1.37158 16.0385 1.61914 15.8825 1.77148L9.69651 7.8125L15.8825 13.853C16.0385 14.0054 16.0385 14.2529 15.8825 14.4053L14.751 15.5103C14.595 15.6626 14.3415 15.6626 14.1855 15.5103L7.99951 9.46973L2.87151 14.4775L1.81401 15.5103C1.65801 15.6626 1.40451 15.6626 1.24851 15.5103L0.117012 14.4053C-0.0389881 14.2529 -0.0389881 14.0054 0.117012 13.853L6.30251 7.8125Z" fill="#FF5E16"/>
</svg>
