<svg width="100" height="100" viewBox="0 0 100 100" fill="none" xmlns="http://www.w3.org/2000/svg">
<circle opacity="0.1" cx="50" cy="50" r="50" fill="#FF5E16"/>
<path d="M68.795 36.913C66.3156 35.8565 63.8342 35.4546 61.3542 35.4546C53.4812 35.4539 45.6089 39.5026 37.7359 39.5026C35.7615 39.5026 33.7883 39.2481 31.8138 38.6117C31.592 38.5403 31.3695 38.5065 31.1522 38.5065C30.0522 38.5065 29.0908 39.3715 29.0908 40.5721V61.1734C29.0908 61.9936 29.553 62.7708 30.2951 63.0864C32.7745 64.1436 35.2559 64.5455 37.7359 64.5455C45.6089 64.5455 53.4818 60.4968 61.3548 60.4968C63.3293 60.4968 65.3025 60.7513 67.2769 61.3877C67.4987 61.4591 67.7212 61.4929 67.9385 61.4929C69.0386 61.4929 69.9999 60.628 69.9999 59.4273V38.8267C69.9993 38.0059 69.5371 37.2293 68.795 36.913ZM32.159 41.9624C33.445 42.2897 34.7873 42.4539 36.168 42.5423C35.7921 44.4507 34.1405 45.889 32.159 45.889V41.9624ZM32.159 60.4689V57.3663C34.3559 57.3663 36.1335 59.1371 36.2313 61.3533C34.7912 61.2358 33.445 60.9436 32.159 60.4689ZM49.545 56.2338C46.7204 56.2338 44.4315 53.4423 44.4315 50C44.4315 46.5572 46.7211 43.7663 49.545 43.7663C52.369 43.7663 54.6586 46.5572 54.6586 50C54.6586 53.4436 52.3684 56.2338 49.545 56.2338ZM66.9311 58.0377C65.8113 57.7526 64.6486 57.5929 63.459 57.4897C63.8342 55.7961 65.2168 54.5104 66.9311 54.2897V58.0377ZM66.9311 42.7059C64.9567 42.452 63.4245 40.7773 63.3638 38.7091C64.6128 38.85 65.7985 39.1137 66.9311 39.5312V42.7059Z" fill="#FF5E16"/>
</svg>
