<svg width="100" height="100" viewBox="0 0 100 100" fill="none" xmlns="http://www.w3.org/2000/svg">
<circle opacity="0.1" cx="50" cy="50" r="50" fill="#FF5E16"/>
<path fill-rule="evenodd" clip-rule="evenodd" d="M47.8183 31.948C47.6105 32.1558 47.4027 32.2597 47.0911 32.2597C46.7794 32.2597 46.5716 32.1558 46.3638 31.948C45.9482 31.5324 45.9482 30.9091 46.3638 30.4935L49.2729 27.5844C49.3248 27.5324 49.3768 27.5065 49.4287 27.4805C49.4807 27.4545 49.5326 27.4285 49.5846 27.3766C49.6885 27.2727 49.8962 27.2727 50.0001 27.2727C50.104 27.2727 50.3118 27.2727 50.4157 27.3766C50.5196 27.3766 50.6235 27.4805 50.7274 27.5844L53.6365 30.4935C54.0521 30.9091 54.0521 31.5324 53.6365 31.948C53.4287 32.1558 53.117 32.2597 52.9092 32.2597C52.7014 32.2597 52.3898 32.1558 52.182 31.948L51.0391 30.8052V36.6234C51.0391 37.2467 50.6235 37.6623 50.0001 37.6623C49.3768 37.6623 48.9612 37.2467 48.9612 36.6234V30.8052L47.8183 31.948ZM70.7793 39.7402H29.2208C28.5975 39.7402 28.1819 40.1558 28.1819 40.7792V65.7143C28.1819 66.3376 28.5975 66.7532 29.2208 66.7532H70.7793C71.4027 66.7532 71.8182 66.3376 71.8182 65.7143V40.7792C71.8182 40.1558 71.4027 39.7402 70.7793 39.7402ZM37.5325 62.5974H33.3767C32.7533 62.5974 32.3377 62.1818 32.3377 61.5584V57.4026C32.3377 56.7792 32.7533 56.3636 33.3767 56.3636C34.0001 56.3636 34.4157 56.7792 34.4157 57.4026V60.5195H37.5325C38.1559 60.5195 38.5715 60.935 38.5715 61.5584C38.5715 62.1818 38.1559 62.5974 37.5325 62.5974ZM37.5325 45.974H34.4157V49.0909C34.4157 49.7143 34.0001 50.1298 33.3767 50.1298C32.7533 50.1298 32.3377 49.7143 32.3377 49.0909V44.935C32.3377 44.3117 32.7533 43.8961 33.3767 43.8961H37.5325C38.1559 43.8961 38.5715 44.3117 38.5715 44.935C38.5715 45.5584 38.1559 45.974 37.5325 45.974ZM50.0001 62.5974C44.8053 62.5974 40.6494 58.4415 40.6494 53.2467C40.6494 48.0519 44.8053 43.8961 50.0001 43.8961C55.1949 43.8961 59.3507 48.0519 59.3507 53.2467C59.3507 58.4415 55.1949 62.5974 50.0001 62.5974ZM67.6624 61.5584C67.6624 62.1818 67.2468 62.5974 66.6234 62.5974H62.4676C61.8442 62.5974 61.4286 62.1818 61.4286 61.5584C61.4286 60.935 61.8442 60.5195 62.4676 60.5195H65.5845V57.4026C65.5845 56.7792 66.0001 56.3636 66.6234 56.3636C67.2468 56.3636 67.6624 56.7792 67.6624 57.4026V61.5584ZM67.6624 49.0909C67.6624 49.7143 67.2468 50.1298 66.6234 50.1298C66.0001 50.1298 65.5845 49.7143 65.5845 49.0909V45.974H62.4676C61.8442 45.974 61.4286 45.5584 61.4286 44.935C61.4286 44.3117 61.8442 43.8961 62.4676 43.8961H66.6234C67.2468 43.8961 67.6624 44.3117 67.6624 44.935V49.0909ZM50.0001 60.5195C54.0167 60.5195 57.2728 57.2633 57.2728 53.2467C57.2728 49.2301 54.0167 45.974 50.0001 45.974C45.9834 45.974 42.7273 49.2301 42.7273 53.2467C42.7273 57.2633 45.9834 60.5195 50.0001 60.5195Z" fill="#FF5E16"/>
</svg>
