<svg width="18" height="18" viewBox="0 0 18 18" fill="none" xmlns="http://www.w3.org/2000/svg">
<path d="M9 0C4.03745 0 0 4.03745 0 9C0 13.9625 4.03745 18 9 18C13.9625 18 18 13.9625 18 9C18 4.03745 13.9625 0 9 0ZM9 13.8423C8.82884 13.8423 8.66153 13.7915 8.51922 13.6964C8.37691 13.6013 8.26599 13.4662 8.20049 13.308C8.13499 13.1499 8.11785 12.9759 8.15124 12.808C8.18464 12.6402 8.26705 12.486 8.38808 12.365C8.50911 12.2439 8.6633 12.1615 8.83117 12.1281C8.99904 12.0947 9.17304 12.1119 9.33117 12.1774C9.4893 12.2429 9.62445 12.3538 9.71954 12.4961C9.81463 12.6384 9.86539 12.8057 9.86539 12.9769C9.86539 13.2064 9.77421 13.4265 9.61192 13.5888C9.44963 13.7511 9.22951 13.8423 9 13.8423ZM9.93981 5.13865L9.69144 10.4175C9.69144 10.6011 9.6185 10.7772 9.48867 10.907C9.35884 11.0369 9.18275 11.1098 8.99914 11.1098C8.81552 11.1098 8.63943 11.0369 8.5096 10.907C8.37977 10.7772 8.30683 10.6011 8.30683 10.4175L8.05846 5.14125V5.13909C8.05302 5.01228 8.07329 4.88568 8.11807 4.76691C8.16285 4.64814 8.23119 4.53966 8.319 4.44801C8.40681 4.35635 8.51225 4.28342 8.62899 4.23359C8.74573 4.18376 8.87134 4.15807 8.99827 4.15807C9.1252 4.15807 9.25081 4.18376 9.36755 4.23359C9.48429 4.28342 9.58973 4.35635 9.67754 4.44801C9.76534 4.53966 9.83369 4.64814 9.87847 4.76691C9.92324 4.88568 9.94352 5.01228 9.93808 5.13909L9.93981 5.13865Z" fill="#FF5E16"/>
</svg>
