<svg width="100" height="100" viewBox="0 0 100 100" fill="none" xmlns="http://www.w3.org/2000/svg">
<circle opacity="0.1" cx="50" cy="50" r="50" fill="#FF5E16"/>
<path d="M42.3628 42.9875L41.5553 42.1985C41.4399 42.0876 41.3029 42.0016 41.1528 41.9458C41.0028 41.8901 40.8428 41.8658 40.683 41.8744C40.5231 41.8831 40.3667 41.9245 40.2236 41.9962C40.0804 42.0678 39.9535 42.1681 39.8508 42.2909C38.0373 44.4505 37.0432 47.1801 37.0432 50C37.0432 52.8199 38.0373 55.5495 39.8508 57.7092C39.9535 57.8319 40.0804 57.9322 40.2236 58.0039C40.3667 58.0755 40.5231 58.1169 40.683 58.1256C40.8428 58.1342 41.0028 58.1099 41.1528 58.0542C41.3029 57.9984 41.4399 57.9124 41.5553 57.8015L42.3628 57.0125C42.5589 56.8257 42.6773 56.5718 42.6943 56.3015C42.7113 56.0313 42.6256 55.7645 42.4545 55.5546C41.1618 53.9921 40.4545 52.0278 40.4545 50C40.4545 47.9722 41.1618 46.0079 42.4545 44.4454C42.6255 44.2354 42.711 43.9687 42.694 43.6985C42.6771 43.4283 42.5588 43.1744 42.3628 42.9875ZM36.7137 37.4733L35.909 36.6872C35.7957 36.5797 35.6619 36.496 35.5156 36.4412C35.3692 36.3864 35.2134 36.3616 35.0573 36.3682C34.9012 36.3749 34.748 36.4128 34.6069 36.4798C34.4657 36.5468 34.3395 36.6415 34.2357 36.7582C30.9083 40.4133 29.0908 45.0703 29.0908 50C29.0908 54.9297 30.9083 59.5867 34.2357 63.2453C34.3395 63.3621 34.4657 63.4568 34.6069 63.5238C34.748 63.5908 34.9012 63.6287 35.0573 63.6353C35.2134 63.642 35.3692 63.6171 35.5156 63.5623C35.6619 63.5075 35.7957 63.4239 35.909 63.3163L36.7137 62.5302C37.1476 62.1042 37.1441 61.4373 36.7393 60.9885C34.0111 57.9803 32.5 54.0647 32.5 50.0039C32.5 45.9431 34.0111 42.0275 36.7393 39.0193C37.1441 38.5669 37.1476 37.8966 36.7137 37.4733ZM64.855 36.7547C64.7512 36.6379 64.625 36.5433 64.4838 36.4763C64.3427 36.4093 64.1895 36.3713 64.0334 36.3647C63.8773 36.3581 63.7215 36.3829 63.5752 36.4377C63.4289 36.4925 63.2951 36.5761 63.1817 36.6837L62.377 37.4733C61.9431 37.8994 61.9466 38.5662 62.3515 39.0157C65.0796 42.024 66.5907 45.9396 66.5907 50.0004C66.5907 54.0612 65.0796 57.9767 62.3515 60.985C61.9466 61.4338 61.9431 62.1034 62.377 62.5267L63.1817 63.3128C63.2951 63.4203 63.4289 63.504 63.5752 63.5588C63.7215 63.6136 63.8773 63.6384 64.0334 63.6318C64.1895 63.6252 64.3427 63.5872 64.4838 63.5202C64.625 63.4532 64.7512 63.3585 64.855 63.2418C68.1824 59.5868 69.9999 54.9297 69.9999 50C69.9999 45.0703 68.1824 40.4133 64.855 36.7547ZM49.5454 46.0233C48.7587 46.0233 47.9898 46.2565 47.3357 46.6935C46.6817 47.1305 46.1719 47.7515 45.8708 48.4782C45.5698 49.2048 45.4911 50.0044 45.6445 50.7758C45.798 51.5472 46.1768 52.2558 46.733 52.812C47.2892 53.3681 47.9979 53.7469 48.7694 53.9003C49.541 54.0538 50.3407 53.975 51.0674 53.674C51.7942 53.373 52.4153 52.8633 52.8523 52.2094C53.2894 51.5554 53.5226 50.7865 53.5226 50C53.5226 48.9453 53.1036 47.9338 52.3577 47.188C51.6118 46.4423 50.6002 46.0233 49.5454 46.0233ZM57.5354 42.1985L56.7279 42.9875C56.5319 43.1744 56.4137 43.4283 56.3967 43.6985C56.3797 43.9687 56.4653 44.2354 56.6363 44.4454C57.9289 46.0079 58.6362 47.9722 58.6362 50C58.6362 52.0278 57.9289 53.9921 56.6363 55.5546C56.4653 55.7646 56.3797 56.0313 56.3967 56.3015C56.4137 56.5718 56.5319 56.8256 56.7279 57.0125L57.5354 57.8015C57.6508 57.9124 57.7878 57.9984 57.9379 58.0542C58.088 58.1099 58.2479 58.1342 58.4078 58.1256C58.5676 58.1169 58.724 58.0755 58.8671 58.0039C59.0103 57.9322 59.1372 57.8319 59.24 57.7092C61.0534 55.5495 62.0476 52.8199 62.0476 50C62.0476 47.1801 61.0534 44.4505 59.24 42.2909C59.1372 42.1681 59.0103 42.0678 58.8671 41.9962C58.724 41.9245 58.5676 41.8831 58.4078 41.8744C58.2479 41.8658 58.088 41.8901 57.9379 41.9458C57.7878 42.0016 57.6508 42.0876 57.5354 42.1985Z" fill="#FF5E16"/>
</svg>
