<svg width="180" height="37" viewBox="0 0 180 37" fill="none" xmlns="http://www.w3.org/2000/svg">
<path d="M71.0338 21.2044V21.1302C74.115 20.0907 75.7485 17.6405 75.7485 13.8539C75.7485 8.76801 72.7415 6.09512 67.1358 6.09512H57.1496C55.2934 6.09512 54.1797 7.20882 54.1797 9.065V28.2579C54.1797 30.0769 55.2191 31.1906 56.964 31.1906C58.6716 31.1906 59.7111 30.0769 59.7111 28.2579V22.281H65.0569L70.8482 29.9656C71.4421 30.7452 72.1846 31.1906 73.1498 31.1906C74.8575 31.1906 75.9712 30.1512 75.9712 28.4435C75.9712 27.7381 75.7113 27.0699 75.303 26.5502L71.0338 21.2044ZM59.7111 17.2322V11.1439H66.5418C68.8435 11.1439 70.1057 12.2205 70.1057 14.188C70.1057 16.1185 68.8435 17.2322 66.5418 17.2322H59.7111Z" fill="#1A1A1A"/>
<path d="M87.8116 17.0837C89.9276 17.0837 91.6724 18.2716 92.0808 20.1278H83.3568C83.7651 18.2716 85.6213 17.0837 87.8116 17.0837ZM95.2363 28.4806C95.5704 28.0351 95.756 27.5525 95.756 26.9957C95.756 25.6592 94.8651 24.8054 93.5286 24.8054C92.8975 24.8054 92.3035 25.0653 91.8581 25.5107C90.7444 26.5502 89.5935 27.0328 87.9972 27.0328C85.5842 27.0328 83.9136 25.7335 83.3568 23.6174H94.3082C95.8674 23.6174 96.9069 22.578 96.9069 20.9817V20.6847C96.9069 16.4155 92.9346 12.7031 87.8116 12.7031C82.0946 12.7031 78.1595 16.4897 78.1595 22.0582C78.1595 27.6268 82.0946 31.4134 87.9972 31.4134C91.1156 31.4134 93.6029 30.3739 95.2363 28.4806Z" fill="#1A1A1A"/>
<path d="M108.802 17.0837C110.918 17.0837 112.663 18.2716 113.072 20.1278H104.348C104.756 18.2716 106.612 17.0837 108.802 17.0837ZM116.227 28.4806C116.561 28.0351 116.747 27.5525 116.747 26.9957C116.747 25.6592 115.856 24.8054 114.519 24.8054C113.888 24.8054 113.294 25.0653 112.849 25.5107C111.735 26.5502 110.584 27.0328 108.988 27.0328C106.575 27.0328 104.904 25.7335 104.348 23.6174H115.299C116.858 23.6174 117.898 22.578 117.898 20.9817V20.6847C117.898 16.4155 113.925 12.7031 108.802 12.7031C103.085 12.7031 99.1502 16.4897 99.1502 22.0582C99.1502 27.6268 103.085 31.4134 108.988 31.4134C112.106 31.4134 114.594 30.3739 116.227 28.4806Z" fill="#1A1A1A"/>
<path d="M123.334 4.75867C121.774 4.75867 120.809 5.79813 120.809 7.46869V28.4806C120.809 30.1512 121.774 31.1906 123.334 31.1906C124.93 31.1906 125.895 30.1512 125.895 28.4806V7.46869C125.895 5.79813 124.93 4.75867 123.334 4.75867Z" fill="#1A1A1A"/>
<path d="M154.525 5.87237C152.892 5.87237 151.889 6.46635 150.998 7.91417L143.982 19.6452L136.966 7.91417C136.075 6.46635 135.072 5.87237 133.439 5.87237C131.212 5.87237 129.949 7.58006 129.949 9.6961V28.295C129.949 30.1141 130.989 31.1906 132.659 31.1906C134.367 31.1906 135.369 30.1141 135.369 28.295V15.1904H135.444L141.346 25.0281C142.015 26.1418 142.831 26.5873 143.908 26.5873C144.984 26.5873 145.801 26.1418 146.507 24.991L152.261 15.376H152.335V28.2208C152.335 30.0769 153.374 31.1906 155.119 31.1906C156.827 31.1906 157.866 30.0769 157.866 28.2208V9.58473C157.866 7.54293 156.641 5.87237 154.525 5.87237Z" fill="#1A1A1A"/>
<path d="M170.905 17.0837C173.021 17.0837 174.765 18.2716 175.174 20.1278H166.45C166.858 18.2716 168.714 17.0837 170.905 17.0837ZM178.329 28.4806C178.663 28.0351 178.849 27.5525 178.849 26.9957C178.849 25.6592 177.958 24.8054 176.622 24.8054C175.99 24.8054 175.396 25.0653 174.951 25.5107C173.837 26.5502 172.686 27.0328 171.09 27.0328C168.677 27.0328 167.007 25.7335 166.45 23.6174H177.401C178.96 23.6174 180 22.578 180 20.9817V20.6847C180 16.4155 176.028 12.7031 170.905 12.7031C165.188 12.7031 161.252 16.4897 161.252 22.0582C161.252 27.6268 165.188 31.4134 171.09 31.4134C174.209 31.4134 176.696 30.3739 178.329 28.4806Z" fill="#1A1A1A"/>
<path fill-rule="evenodd" clip-rule="evenodd" d="M0.244679 21.448C-1.29585 12.6356 4.59845 4.24389 13.4109 2.70336C22.2234 1.16283 30.6151 7.05713 32.1558 15.8707C33.6963 24.6832 27.802 33.0749 18.9895 34.6154C18.9463 34.623 18.9032 34.629 18.86 34.635C18.8275 34.6395 18.795 34.644 18.7623 34.6492C18.7527 34.6515 18.7431 34.6539 18.7335 34.6562C18.7061 34.663 18.6789 34.6697 18.6508 34.6746L6.23873 36.8444C5.11119 37.0415 4.02665 36.2797 3.82955 35.1522L3.79824 34.9731C3.69567 34.3864 3.85345 33.8133 4.18644 33.3693L4.18414 33.3697L5.8967 31.1581L5.94101 31.1882C3.03987 28.8141 0.940978 25.4311 0.244679 21.448ZM10.175 18.8149H22.0852C22.4559 18.8149 22.8254 18.9699 23.1016 19.217C23.3487 19.4641 23.4711 19.8337 23.4408 20.2043C23.1949 23.7525 19.9859 26.529 16.1289 26.529C12.2731 26.529 9.06412 23.7828 8.81701 20.2346C8.81701 19.864 8.94056 19.5248 9.18768 19.2473C9.43479 18.9688 9.80429 18.8149 10.175 18.8149Z" fill="#FF5E16"/>
<path d="M31.5425 1.01215L29.9593 4.12596L34.2055 10.6297L37.6956 10.4315C38.6266 10.3789 38.9738 9.69607 38.4646 8.91518L33.2441 0.919306C32.7302 0.137544 31.9678 0.179578 31.5425 1.01215Z" fill="#FF5E16"/>
</svg>
