<svg width="45" height="25" viewBox="0 0 45 25" fill="none" xmlns="http://www.w3.org/2000/svg">
<path d="M37.4264 0C31.9125 0 29.8128 4.51614 29.7473 7.55152V12.4586C29.7364 12.6801 29.6491 13.3142 29.3546 13.8348C29.0947 14.2942 28.6874 14.7211 27.4876 14.7211C26.2968 14.7211 25.8987 14.3014 25.6442 13.8475C25.3533 13.3268 25.2697 12.6873 25.2624 12.473V7.58935C25.2406 4.53956 23.1863 0 17.6179 0C12.0913 0 9.95697 4.52515 9.86971 7.56773C9.86971 7.59295 9.8679 7.61817 9.8679 7.64519V17.4143C9.86244 17.6214 9.78609 18.2483 9.5043 18.7563C9.26251 19.1922 8.87892 19.594 7.71361 19.594C6.51921 19.594 6.1029 19.1508 5.85202 18.7167C5.55024 18.1925 5.42116 17.589 5.41207 17.3854C5.283 16.0272 4.13041 14.9661 2.72694 14.9661C1.29802 14.9661 0.092716 16.0686 0 17.4629C0.0436311 20.4911 2.13429 24.9982 7.71361 24.9982C10.4587 24.9982 12.1567 23.8777 13.1002 22.9374C15.2545 20.7865 15.3236 17.8196 15.3236 17.4197V7.71004C15.3327 7.61277 15.4036 6.98588 15.6999 6.41843C15.9726 5.89062 16.3944 5.40424 17.6179 5.40424C18.7723 5.40424 19.1668 5.82036 19.4195 6.27252C19.7103 6.79132 19.7976 7.42722 19.8085 7.6488V12.5C19.8085 15.566 21.8537 20.1272 27.4876 20.1272C33.1069 20.1272 35.1794 15.5786 35.2012 12.5198V7.67402C35.2176 7.43983 35.3157 6.81114 35.612 6.29233C35.8757 5.83117 36.2774 5.40604 37.4264 5.40604C38.5499 5.40604 38.928 5.81316 39.1698 6.2545C39.457 6.77871 39.537 7.42002 39.5461 7.63619V22.2979C39.5461 23.7894 40.7678 25 42.2731 25C43.7783 25 45 23.7894 45 22.2979V7.60917C45 4.55037 42.9821 0 37.4264 0Z" fill="#AD906E"/>
</svg>
