<svg width="100" height="100" viewBox="0 0 100 100" fill="none" xmlns="http://www.w3.org/2000/svg">
<circle opacity="0.1" cx="50" cy="50" r="50" fill="#FF5E16"/>
<path d="M46.5707 33.6998C37.4737 35.2901 31.3891 43.9527 32.9794 53.0497C33.6982 57.1614 35.8648 60.6536 38.8596 63.1044L38.8139 63.0733L37.046 65.3563L37.0484 65.3559C36.7047 65.8142 36.5418 66.4057 36.6477 67.0114L36.68 67.1963C36.8835 68.3603 38.003 69.1466 39.167 68.9431L51.9798 66.7033C52.0189 66.6965 52.0562 66.6863 52.0949 66.6771C52.1733 66.6646 52.2512 66.6559 52.3294 66.6422C61.4264 65.0519 67.511 56.3893 65.9207 47.2923C64.3303 38.1942 55.6677 32.1096 46.5707 33.6998Z" fill="#FF5E16"/>
<path d="M65.2881 31.954L63.6538 35.1683L68.0371 41.882L71.6399 41.6775C72.601 41.6232 72.9594 40.9183 72.4338 40.1122L67.0447 31.8581C66.5142 31.0511 65.7272 31.0945 65.2881 31.954Z" fill="#FF5E16"/>
</svg>
