<svg width="118" height="126" viewBox="0 0 118 126" fill="none" xmlns="http://www.w3.org/2000/svg">
<path d="M48.8415 0.891097C16.7472 6.50159 -4.71939 37.0634 0.891102 69.1577C3.42697 83.6639 11.071 95.9843 21.6367 104.631L21.4753 104.521L15.2383 112.576L15.2467 112.574C14.0339 114.191 13.4593 116.278 13.8329 118.415L13.9469 119.067C14.6648 123.174 18.6146 125.948 22.721 125.23L67.9248 117.328C68.0628 117.304 68.1944 117.268 68.331 117.235C68.6077 117.191 68.8824 117.161 69.1584 117.112C101.253 111.502 122.719 80.94 117.109 48.8457C111.498 16.7472 80.9359 -4.71939 48.8415 0.891097Z" fill="#FF5E16"/>
<path d="M39.4286 76H49.7143L56.5714 62.4V42H36V62.4H46.2857L39.4286 76ZM66.8571 76H77.1429L84 62.4V42H63.4286V62.4H73.7143L66.8571 76Z" fill="white"/>
</svg>
