<svg width="100" height="100" viewBox="0 0 100 100" fill="none" xmlns="http://www.w3.org/2000/svg">
<circle opacity="0.1" cx="50" cy="50" r="50" fill="#FF5E16"/>
<path d="M66.3637 63.5315L56.6022 53.7683C58.1753 51.6066 59.0216 49.0012 59.019 46.3276C59.019 39.3298 53.3255 33.6364 46.3277 33.6364C39.3299 33.6364 33.6365 39.3298 33.6365 46.3276C33.6365 53.3254 39.3299 59.0189 46.3277 59.0189C49.0013 59.0214 51.6067 58.1752 53.7685 56.6021L63.5316 66.3636L66.3637 63.5315ZM46.3277 55.0106C44.6102 55.0107 42.9312 54.5015 41.503 53.5474C40.0749 52.5933 38.9617 51.2371 38.3044 49.6503C37.647 48.0635 37.475 46.3175 37.81 44.6329C38.1451 42.9483 38.9721 41.401 40.1866 40.1865C41.4011 38.972 42.9485 38.1449 44.633 37.8099C46.3176 37.4749 48.0637 37.6469 49.6504 38.3042C51.2372 38.9616 52.5934 40.0747 53.5475 41.5029C54.5017 42.931 55.0108 44.6101 55.0107 46.3276C55.008 48.6296 54.0923 50.8366 52.4645 52.4644C50.8367 54.0922 48.6298 55.0079 46.3277 55.0106V55.0106Z" fill="#FF5E16"/>
</svg>
