<svg width="100" height="100" viewBox="0 0 100 100" fill="none" xmlns="http://www.w3.org/2000/svg">
<circle opacity="0.1" cx="50" cy="50" r="50" fill="#FF5E16"/>
<path d="M67.2016 41.574C67.1842 41.2984 67.0748 41.0366 66.8909 40.8305C66.7071 40.6245 66.4594 40.486 66.1876 40.4374C59.5173 39.2407 56.7328 38.3755 50.5082 35.5641C50.3485 35.4919 50.1753 35.4546 50 35.4546C49.8248 35.4546 49.6515 35.4919 49.4918 35.5641C43.2673 38.3755 40.4827 39.2407 33.8125 40.4374C33.5406 40.486 33.293 40.6245 33.1091 40.8305C32.9253 41.0366 32.8159 41.2984 32.7984 41.574C32.5016 46.2861 33.1347 50.6767 34.6823 54.6239C35.9497 57.8436 37.8253 60.7891 40.2067 63.2995C44.3299 67.6739 48.7076 69.5738 49.5427 69.91C49.8395 70.0301 50.1713 70.0301 50.4681 69.91C51.3032 69.5738 55.6809 67.6739 59.8042 63.2995C62.1817 60.7882 64.0536 57.8427 65.3177 54.6239C66.8654 50.6767 67.4985 46.2861 67.2016 41.574ZM57.0998 47.3656L48.5557 57.2356C48.4458 57.3629 48.3111 57.4663 48.1598 57.5397C48.0085 57.613 47.8438 57.6546 47.6758 57.662H47.6249C47.302 57.6621 46.992 57.5356 46.7613 57.3096L42.9673 53.593C42.8516 53.4796 42.7593 53.3445 42.6958 53.1954C42.6322 53.0463 42.5987 52.8862 42.597 52.7241C42.5937 52.3969 42.7205 52.0817 42.9496 51.848C43.1786 51.6142 43.4912 51.4811 43.8184 51.4777C44.1457 51.4744 44.4609 51.6012 44.6947 51.8303L47.5478 54.6285L55.236 45.751C55.4501 45.5035 55.7538 45.3513 56.0802 45.3277C56.4066 45.3041 56.729 45.4112 56.9764 45.6253C57.2239 45.8394 57.3762 46.1431 57.3997 46.4694C57.4233 46.7958 57.3163 47.1182 57.1021 47.3656H57.0998Z" fill="#FF5E16"/>
</svg>
